<?xml version="1.0" standalone="no"?>
<!DOCTYPE svg PUBLIC "-//W3C//DTD SVG 1.1//EN" "http://www.w3.org/Graphics/SVG/1.1/DTD/svg11.dtd" >
<svg xmlns="http://www.w3.org/2000/svg">
<metadata>Generated by IcoMoon</metadata>
<defs>
<font id="icomoon" horiz-adv-x="1024">
<font-face units-per-em="1024" ascent="960" descent="-64" />
<missing-glyph horiz-adv-x="1024" />
<glyph unicode="&#x20;" horiz-adv-x="512" d="" />
<glyph unicode="&#xe900;" glyph-name="home" d="M882.914 327.172l-370.914 287.912-370.914-287.913v117.387l370.914 287.912 370.914-287.913zM790.186 337.636v-278.186h-185.456v185.456h-185.456v-185.456h-185.456v278.186l278.186 208.639z" />
<glyph unicode="&#xe905;" glyph-name="pencil" d="M644 576c33.137 0 60-26.863 60-60 0-13.507-4.466-25.972-12-36l-24-24-84 84 24 24c10.027 7.535 22.493 12 36 12zM344 300l-24-108 108 24 222 222-84 84-222-222zM588.342 439.658l-168-168-20.683 20.683 168 168 20.683-20.683z" />
<glyph unicode="&#xe942;" glyph-name="phone" d="M550.4 358.4c-12.8-12.8-12.8-25.6-25.6-25.6s-25.6 12.8-38.4 25.6-25.6 25.6-25.6 38.4 12.8 12.8 25.6 25.6-25.6 51.2-38.4 51.2-38.4-38.4-38.4-38.4c0-25.6 26.3-77.5 51.2-102.4s76.8-51.2 102.4-51.2c0 0 38.4 25.6 38.4 38.4s-38.4 51.2-51.2 38.4z" />
<glyph unicode="&#xe945;" glyph-name="envelop" d="M608.001 472.616h-192.002c-12.185 0-22.155-9.97-22.155-22.155v-147.694c0-12.185 9.97-22.155 22.155-22.155h192.002c12.185 0 22.155 9.97 22.155 22.155v147.694c0 12.185-9.97 22.155-22.155 22.155zM485.863 375.145l-62.48-48.667v115.765l62.48-67.097zM434.549 443.078h154.903l-77.451-58.155-77.451 58.155zM488.297 372.532l23.703-25.455 23.703 25.455 48.589-62.378h-144.585l48.589 62.378zM538.137 375.145l62.48 67.097v-115.765l-62.48 48.667z" />
<glyph unicode="&#xe950;" glyph-name="alarm" d="M512 592c-92.784 0-168-75.216-168-168s75.216-168 168-168 168 75.216 168 168-75.216 168-168 168zM512 289c-74.559 0-135 60.441-135 135s60.441 135 135 135c74.559 0 135-60.441 135-135s-60.441-135-135-135zM670.544 532.309c6.015 10.521 9.456 22.702 9.456 35.691 0 39.765-32.235 72-72 72-23.181 0-43.802-10.959-56.97-27.975 49.455-10.215 91.953-39.448 119.514-79.718v0zM472.97 612.025c-13.167 17.014-33.789 27.975-56.97 27.975-39.765 0-72-32.235-72-72 0-12.987 3.441-25.172 9.456-35.691 27.561 40.269 70.059 69.502 119.514 79.718zM512 424v96h-24v-120h96v24z" />
<glyph unicode="&#xe951;" glyph-name="bell" d="M704.563 276c0 108-96 84-96 168 0 6.96-0.671 12.908-1.893 17.973-6.311 42.383-34.559 76.395-71.165 86.76 0.326 1.481 0.495 3.012 0.495 4.58 0 12.479-10.8 22.688-24 22.688s-24-10.209-24-22.688c0-1.568 0.171-3.099 0.495-4.58-41.051-11.624-71.594-52.988-72.47-102.542-0.015-0.72-0.026-1.449-0.026-2.192 0-84.002-96-60.002-96-168.002 0-28.586 63.971-52.499 149.615-58.53 8.072-15.152 24.021-25.47 42.386-25.47s34.316 10.319 42.386 25.47c85.643 6.032 149.615 29.945 149.615 58.53 0 0.086-0.011 0.171-0.011 0.257l0.573-0.257zM629.842 255.714c-20.336-5.426-44.309-9.329-70.038-11.493-2.139 24.533-22.718 43.779-47.804 43.779s-45.665-19.247-47.804-43.779c-25.728 2.165-49.703 6.068-70.038 11.493-27.986 7.469-41.366 15.821-46.263 20.286 4.898 4.466 18.278 12.818 46.263 20.286 32.54 8.682 74.39 13.464 117.842 13.464s85.304-4.782 117.842-13.464c27.986-7.469 41.366-15.821 46.263-20.286-4.898-4.466-18.278-12.818-46.263-20.286z" />
<glyph unicode="&#xe953;" glyph-name="calendar" d="M416 448h64v-64h-64zM512 448h64v-64h-64zM608 448h64v-64h-64zM320 256h64v-64h-64zM416 256h64v-64h-64zM512 256h64v-64h-64zM416 352h64v-64h-64zM512 352h64v-64h-64zM608 352h64v-64h-64zM320 352h64v-64h-64zM672 640v-32h-64v32h-224v-32h-64v32h-64v-512h480v512h-64zM704 160h-416v352h416v-352z" />
<glyph unicode="&#xe972;" glyph-name="users" horiz-adv-x="1152" d="M648 287.022v19.792c26.437 14.898 48 52.039 48 89.187 0 59.647 0 108-72 108s-72-48.352-72-108c0-37.147 21.562-74.289 48-89.187v-19.792c-81.412-6.655-144-46.657-144-95.019h335.998c0 48.363-62.587 88.365-144 95.019zM482.7 277.752c20.74 13.555 46.53 23.863 74.92 30.154-5.644 6.669-10.765 14.107-15.184 22.132-11.404 20.713-17.434 43.522-17.434 65.959 0 32.266 0 62.74 11.475 87.66 11.14 24.189 31.173 39.186 59.707 44.808-6.343 28.68-23.227 47.53-68.182 47.53-72 0-72-48.352-72-108 0-37.147 21.562-74.289 48-89.187v-19.792c-81.412-6.655-144-46.657-144-95.019h104.626c5.443 4.84 11.473 9.439 18.070 13.752z" />
<glyph unicode="&#xe975;" glyph-name="user-check" d="M873.846 306.462l-232.615-232.615-77.538 77.538-51.692-51.692 129.231-129.231 284.308 284.308zM460.308 177.23h258.462v92.988c-54.291 31.662-126.247 53.393-206.77 59.977v42.631c56.943 32.088 103.384 112.083 103.384 192.096 0 128.473 0 232.616-155.076 232.616s-155.076-104.143-155.076-232.616c0-80.009 46.443-160.008 103.384-192.096v-42.631c-175.351-14.333-310.154-100.495-310.154-204.657h361.846v51.692z" />
<glyph unicode="&#xe984;" glyph-name="spinner11" d="M640 416h-96l35.883 35.883c-18.133 18.131-42.24 28.117-67.883 28.117s-49.75-9.986-67.883-28.117c-18.131-18.133-28.117-42.24-28.117-67.883s9.986-49.75 28.117-67.883c18.133-18.131 42.24-28.117 67.883-28.117s49.75 9.986 67.882 28.118c1.514 1.513 2.965 3.073 4.364 4.667l24.080-21.071c-23.461-26.791-57.916-43.715-96.326-43.715-70.693 0-128 57.307-128 128s57.307 128 128 128c35.347 0 67.342-14.331 90.504-37.496l37.496 37.496v-96z" />
<glyph unicode="&#xe986;" glyph-name="search" d="M692.098 249.226l-90.957 77.36c-9.404 8.462-19.46 12.347-27.582 11.972 21.471 25.151 34.442 57.779 34.442 93.441 0 79.529-64.472 144-144 144s-144-64.472-144-144 64.472-144 144-144c35.663 0 68.291 12.971 93.441 34.442-0.375-8.123 3.51-18.179 11.972-27.582l77.36-90.957c13.247-14.717 34.883-15.959 48.083-2.759s11.96 34.838-2.759 48.083zM464 336c-53.019 0-96 42.981-96 96s42.981 96 96 96 96-42.981 96-96-42.98-96-96-96z" />
<glyph unicode="&#xe98f;" glyph-name="lock" d="M549.333 413.867h-7.467v89.6c0 49.406-40.194 89.6-89.6 89.6h-59.733c-49.406 0-89.6-40.194-89.6-89.6v-89.6h-7.467c-12.32 0-22.4-10.080-22.4-22.4v-224c0-12.32 10.080-22.4 22.4-22.4h253.867c12.32 0 22.4 10.080 22.4 22.4v224c0 12.32-10.080 22.4-22.4 22.4zM362.667 503.467c0 16.469 13.398 29.867 29.867 29.867h59.733c16.469 0 29.867-13.398 29.867-29.867v-89.6h-119.467v89.6z" />
<glyph unicode="&#xe995;" glyph-name="cogs" d="M456.398 305.232l15.488 21.681-16.97 16.971-21.683-15.486c-4.022 2.249-8.327 4.040-12.851 5.322l-4.382 26.282h-24l-4.38-26.282c-4.523-1.283-8.829-3.074-12.851-5.322l-21.683 15.488-16.971-16.971 15.488-21.681c-2.249-4.020-4.040-8.327-5.322-12.851l-26.282-4.382v-24l26.282-4.382c1.283-4.523 3.074-8.829 5.322-12.851l-15.488-21.681 16.97-16.971 21.683 15.486c4.022-2.249 8.327-4.040 12.851-5.322l4.382-26.282h24l4.38 26.282c4.523 1.283 8.829 3.074 12.851 5.322l21.683-15.486 16.97 16.971-15.488 21.681c2.249 4.020 4.040 8.327 5.322 12.851l26.283 4.38v24l-26.282 4.382c-1.283 4.523-3.074 8.829-5.322 12.851zM404.001 252.001c-13.256 0-24 10.745-24 24s10.745 24 24 24 24-10.745 24-24-10.745-24-24-24zM703.999 432v24l-25.268 4.595c-0.467 3.017-1.062 5.993-1.772 8.921l21.584 13.913-9.185 22.173-25.104-5.426c-1.58 2.591-3.272 5.108-5.060 7.55l14.627 21.128-16.971 16.97-21.128-14.627c-2.442 1.787-4.958 3.479-7.55 5.060l5.426 25.104-22.173 9.185-13.913-21.584c-2.93 0.71-5.904 1.307-8.921 1.772l-4.595 25.268h-24l-4.595-25.268c-3.017-0.467-5.991-1.062-8.921-1.772l-13.913 21.584-22.173-9.185 5.426-25.104c-2.591-1.581-5.108-3.273-7.55-5.060l-21.128 14.627-16.97-16.97 14.627-21.128c-1.787-2.441-3.479-4.958-5.060-7.55l-25.104 5.426-9.185-22.173 21.584-13.913c-0.71-2.93-1.307-5.903-1.772-8.921l-25.269-4.595v-24l25.268-4.595c0.467-3.017 1.062-5.993 1.772-8.921l-21.584-13.913 9.185-22.173 25.104 5.426c1.581-2.591 3.273-5.108 5.060-7.55l-14.627-21.128 16.97-16.971 21.128 14.627c2.441-1.787 4.958-3.479 7.55-5.060l-5.426-25.104 22.173-9.185 13.913 21.584c2.93-0.71 5.903-1.307 8.921-1.772l4.595-25.269h24l4.595 25.268c3.017 0.467 5.991 1.062 8.921 1.772l13.913-21.584 22.173 9.185-5.426 25.104c2.591 1.581 5.108 3.272 7.55 5.060l21.128-14.627 16.971 16.971-14.627 21.128c1.787 2.442 3.479 4.958 5.060 7.55l25.104-5.426 9.185 22.175-21.584 13.913c0.71 2.93 1.307 5.903 1.772 8.921l25.268 4.595zM572 391.8c-28.829 0-52.2 23.372-52.2 52.2s23.37 52.2 52.2 52.2 52.2-23.372 52.2-52.2c0-28.829-23.37-52.2-52.2-52.2z" />
<glyph unicode="&#xe9ac;" glyph-name="bin" d="M368 456v-240c0-13.2 10.8-24 24-24h216c13.2 0 24 10.8 24 24v240h-264zM440 240h-24v168h24v-168zM488 240h-24v168h24v-168zM536 240h-24v168h24v-168zM584 240h-24v168h24v-168zM638 528h-78v30c0 9.9-8.1 18-18 18h-84c-9.9 0-18-8.1-18-18v-30h-78c-9.9 0-18-8.1-18-18v-30h312v30c0 9.9-8.1 18-18 18zM536 528h-72v23.699h72v-23.699z" />
<glyph unicode="&#xe9b6;" glyph-name="switch" d="M592 612.382v-84.973c22.628-9.878 43.438-24.005 61.422-41.988 37.777-37.775 58.578-88 58.578-141.422s-20.803-103.647-58.578-141.422c-37.775-37.775-87.998-58.578-141.422-58.578s-103.647 20.803-141.422 58.578c-37.775 37.775-58.578 88-58.578 141.422s20.803 103.647 58.578 141.422c17.983 17.983 38.792 32.112 61.422 41.988v84.972c-115.655-34.425-200-141.545-200-268.383 0-154.64 125.362-280 280-280 154.64 0 280 125.36 280 280 0 126.838-84.343 233.958-200 268.383zM472 704h80v-320h-80z" />
<glyph unicode="&#xe9b8;" glyph-name="clipboard" d="M668 528h-108c0 26.51-21.49 48-48 48s-48-21.49-48-48h-108c-6.627 0-12-5.373-12-12v-312c0-6.629 5.373-12 12-12h312c6.629 0 12 5.371 12 12v312c0 6.627-5.371 12-12 12zM512 552c13.255 0 24-10.745 24-24s-10.745-24-24-24c-13.255 0-24 10.745-24 24s10.745 24 24 24zM656 216h-288v288h48v-36c0-6.627 5.373-12 12-12h168c6.629 0 12 5.373 12 12v36h48v-288zM488 254.059l-76.969 88.97 21.94 21.94 55.031-43.029 103.027 91.029 21.944-21.941z" />
<glyph unicode="&#xea0a;" glyph-name="plus" d="M872 480h-264v264c0 13.254-10.746 24-24 24h-144c-13.254 0-24-10.746-24-24v-264h-264c-13.254 0-24-10.746-24-24v-144c0-13.254 10.746-24 24-24h264v-264c0-13.254 10.746-24 24-24h144c13.254 0 24 10.746 24 24v264h264c13.254 0 24 10.746 24 24v144c0 13.254-10.746 24-24 24z" />
<glyph unicode="&#xea0d;" glyph-name="cancel-circle" d="M512 640c-141.386 0-256-114.614-256-256s114.614-256 256-256 256 114.614 256 256-114.614 256-256 256zM512 176c-114.874 0-208 93.126-208 208s93.126 208 208 208 208-93.126 208-208-93.126-208-208-208zM592 512l-80-80-80 80-48-48 80-80-80-80 48-48 80 80 80-80 48 48-80 80 80 80z" />
<glyph unicode="&#xea0f;" glyph-name="cross" d="M888.996 151.004c-0.001 0.001-0.006 0.006-0.007 0.007l-232.984 232.99 232.984 232.99c0.001 0.001 0.006 0.001 0.007 0.007 2.508 2.509 4.321 5.437 5.484 8.562 3.181 8.532 1.368 18.511-5.491 25.369l-110.064 110.064c-6.859 6.859-16.837 8.671-25.369 5.49-3.12-1.159-6.049-2.976-8.563-5.479 0-0.001-0.001-0.001-0.006-0.007l-232.987-232.99-232.987 232.99c-0.001 0.001-0.001 0.001-0.007 0.007-2.509 2.503-5.437 4.32-8.557 5.479-8.533 3.186-18.511 1.369-25.369-5.49l-110.064-110.064c-6.859-6.859-8.676-16.837-5.491-25.369 1.164-3.12 2.977-6.054 5.484-8.562 0.001-0.001 0.001-0.001 0.007-0.007l232.99-232.987-232.99-232.99c-0.001-0.001-0.001-0.001-0.006-0.007-2.503-2.509-4.32-5.437-5.485-8.557-3.186-8.532-1.369-18.511 5.491-25.369l110.064-110.064c6.859-6.859 16.837-8.676 25.369-5.491 3.12 1.164 6.049 2.977 8.562 5.484 0.001 0.001 0.001 0.001 0.007 0.007l232.987 232.99 232.987-232.99c0.001-0.001 0.006-0.001 0.007-0.006 2.509-2.508 5.437-4.321 8.557-5.485 8.533-3.181 18.511-1.369 25.369 5.491l110.064 110.064c6.859 6.859 8.677 16.837 5.491 25.369-1.164 3.12-2.977 6.049-5.485 8.557z" />
<glyph unicode="&#xea10;" glyph-name="checkmark" d="M638.72 522.24l-172.8-172.8-80.64 80.64-57.6-57.6 138.24-138.24 230.4 230.4z" />
<glyph unicode="&#xea40;" glyph-name="arrow-left2" d="M457.373 201.371l-160.001 160.001c-12.496 12.496-12.496 32.758 0 45.255l160.001 160.001c12.496 12.496 32.758 12.496 45.255 0s12.496-32.758 0-45.255l-105.375-105.375h306.746c17.673 0 31.999-14.326 31.999-31.999s-14.326-31.999-31.999-31.999h-306.746l105.375-105.375c6.247-6.247 9.372-14.437 9.372-22.627s-3.124-16.378-9.372-22.627c-12.496-12.496-32.758-12.496-45.255 0z" />
</font>
</defs>
</svg>
